<?xml version="1.0" encoding="UTF-8" standalone="no"?>
<svg
   xmlns:dc="http://purl.org/dc/elements/1.1/"
   xmlns:cc="http://creativecommons.org/ns#"
   xmlns:rdf="http://www.w3.org/1999/02/22-rdf-syntax-ns#"
   xmlns:svg="http://www.w3.org/2000/svg"
   xmlns="http://www.w3.org/2000/svg"
   xmlns:sodipodi="http://sodipodi.sourceforge.net/DTD/sodipodi-0.dtd"
   xmlns:inkscape="http://www.inkscape.org/namespaces/inkscape"
   viewBox="0 0 512 512"
   xml:space="preserve"
   version="1.1"
   id="svg2"
   sodipodi:docname="hamachi.svg"
   inkscape:version="0.92.2 5c3e80d, 2017-08-06"
   width="512"
   height="512"><sodipodi:namedview
     pagecolor="#ffffff"
     bordercolor="#666666"
     borderopacity="1"
     objecttolerance="10"
     gridtolerance="10"
     guidetolerance="10"
     inkscape:pageopacity="0"
     inkscape:pageshadow="2"
     inkscape:window-width="1073"
     inkscape:window-height="1050"
     id="namedview12770"
     showgrid="false"
     inkscape:zoom="0.59305555"
     inkscape:cx="251.48724"
     inkscape:cy="72.952995"
     inkscape:window-x="0"
     inkscape:window-y="28"
     inkscape:window-maximized="0"
     inkscape:current-layer="layer2" /><metadata
     id="metadata8"><rdf:RDF><cc:Work
         rdf:about=""><dc:format>image/svg+xml</dc:format><dc:type
           rdf:resource="http://purl.org/dc/dcmitype/StillImage" /><dc:title /></cc:Work></rdf:RDF></metadata><defs
     id="defs6"><inkscape:perspective
       sodipodi:type="inkscape:persp3d"
       inkscape:vp_x="0 : 0.5 : 1"
       inkscape:vp_y="0 : 22.222222 : 0"
       inkscape:vp_z="1 : 0.5 : 1"
       inkscape:persp3d-origin="0.5 : 0.33333333 : 1"
       id="perspective17668" /><clipPath
       id="clipPath16"
       clipPathUnits="userSpaceOnUse"><path
         id="path18"
         d="M 0,36 H 36 V 0 H 0 Z"
         inkscape:connector-curvature="0" /></clipPath><clipPath
       id="clipPath28"
       clipPathUnits="userSpaceOnUse"><path
         id="path30"
         d="M 2.442,20.978 C 2.264,20.911 2.11,20.797 1.995,20.646 v 0 C 0.755,19.012 -0.619,12.529 3,9 V 9 C 6.557,5.532 9.822,4.696 11.777,4.505 v 0 C 11.81,4.502 11.885,4.498 11.918,4.498 v 0 c 2.458,0 18.332,10.761 19.524,13.235 v 0 c 1.371,2.842 1.281,8.399 -1.98,10.298 v 0 c -0.395,0.23 -0.914,0.337 -1.633,0.337 v 0 c -5.581,0 -24.582,-7.088 -25.387,-7.39"
         inkscape:connector-curvature="0" /></clipPath><clipPath
       id="clipPath40"
       clipPathUnits="userSpaceOnUse"><path
         id="path42"
         d="M 0,36 H 36 V 0 H 0 Z"
         inkscape:connector-curvature="0" /></clipPath><clipPath
       id="clipPath16-3"
       clipPathUnits="userSpaceOnUse"><path
         inkscape:connector-curvature="0"
         id="path18-6"
         d="M 0,36 H 36 V 0 H 0 Z" /></clipPath><clipPath
       id="clipPath28-7"
       clipPathUnits="userSpaceOnUse"><path
         inkscape:connector-curvature="0"
         id="path30-5"
         d="M 2.442,20.978 C 2.264,20.911 2.11,20.797 1.995,20.646 v 0 C 0.755,19.012 -0.619,12.529 3,9 V 9 C 6.557,5.532 9.822,4.696 11.777,4.505 v 0 C 11.81,4.502 11.885,4.498 11.918,4.498 v 0 c 2.458,0 18.332,10.761 19.524,13.235 v 0 c 1.371,2.842 1.281,8.399 -1.98,10.298 v 0 c -0.395,0.23 -0.914,0.337 -1.633,0.337 v 0 c -5.581,0 -24.582,-7.088 -25.387,-7.39" /></clipPath><clipPath
       id="clipPath16-9"
       clipPathUnits="userSpaceOnUse"><path
         inkscape:connector-curvature="0"
         id="path18-3"
         d="M 0,36 H 36 V 0 H 0 Z" /></clipPath><clipPath
       id="clipPath28-6"
       clipPathUnits="userSpaceOnUse"><path
         inkscape:connector-curvature="0"
         id="path30-0"
         d="M 2.442,20.978 C 2.264,20.911 2.11,20.797 1.995,20.646 v 0 C 0.755,19.012 -0.619,12.529 3,9 V 9 C 6.557,5.532 9.822,4.696 11.777,4.505 v 0 C 11.81,4.502 11.885,4.498 11.918,4.498 v 0 c 2.458,0 18.332,10.761 19.524,13.235 v 0 c 1.371,2.842 1.281,8.399 -1.98,10.298 v 0 c -0.395,0.23 -0.914,0.337 -1.633,0.337 v 0 c -5.581,0 -24.582,-7.088 -25.387,-7.39" /></clipPath><clipPath
       id="clipPath16-9-3"
       clipPathUnits="userSpaceOnUse"><path
         inkscape:connector-curvature="0"
         id="path18-3-6"
         d="M 0,36 H 36 V 0 H 0 Z" /></clipPath><clipPath
       id="clipPath28-6-7"
       clipPathUnits="userSpaceOnUse"><path
         inkscape:connector-curvature="0"
         id="path30-0-5"
         d="M 2.442,20.978 C 2.264,20.911 2.11,20.797 1.995,20.646 v 0 C 0.755,19.012 -0.619,12.529 3,9 V 9 C 6.557,5.532 9.822,4.696 11.777,4.505 v 0 C 11.81,4.502 11.885,4.498 11.918,4.498 v 0 c 2.458,0 18.332,10.761 19.524,13.235 v 0 c 1.371,2.842 1.281,8.399 -1.98,10.298 v 0 c -0.395,0.23 -0.914,0.337 -1.633,0.337 v 0 c -5.581,0 -24.582,-7.088 -25.387,-7.39" /></clipPath><clipPath
       id="clipPath16-9-7"
       clipPathUnits="userSpaceOnUse"><path
         inkscape:connector-curvature="0"
         id="path18-3-9"
         d="M 0,36 H 36 V 0 H 0 Z" /></clipPath><clipPath
       id="clipPath28-6-2"
       clipPathUnits="userSpaceOnUse"><path
         inkscape:connector-curvature="0"
         id="path30-0-0"
         d="M 2.442,20.978 C 2.264,20.911 2.11,20.797 1.995,20.646 v 0 C 0.755,19.012 -0.619,12.529 3,9 V 9 C 6.557,5.532 9.822,4.696 11.777,4.505 v 0 C 11.81,4.502 11.885,4.498 11.918,4.498 v 0 c 2.458,0 18.332,10.761 19.524,13.235 v 0 c 1.371,2.842 1.281,8.399 -1.98,10.298 v 0 c -0.395,0.23 -0.914,0.337 -1.633,0.337 v 0 c -5.581,0 -24.582,-7.088 -25.387,-7.39" /></clipPath><clipPath
       id="clipPath16-9-78"
       clipPathUnits="userSpaceOnUse"><path
         inkscape:connector-curvature="0"
         id="path18-3-4"
         d="M 0,36 H 36 V 0 H 0 Z" /></clipPath><clipPath
       id="clipPath28-6-5"
       clipPathUnits="userSpaceOnUse"><path
         inkscape:connector-curvature="0"
         id="path30-0-03"
         d="M 2.442,20.978 C 2.264,20.911 2.11,20.797 1.995,20.646 v 0 C 0.755,19.012 -0.619,12.529 3,9 V 9 C 6.557,5.532 9.822,4.696 11.777,4.505 v 0 C 11.81,4.502 11.885,4.498 11.918,4.498 v 0 c 2.458,0 18.332,10.761 19.524,13.235 v 0 c 1.371,2.842 1.281,8.399 -1.98,10.298 v 0 c -0.395,0.23 -0.914,0.337 -1.633,0.337 v 0 c -5.581,0 -24.582,-7.088 -25.387,-7.39" /></clipPath><clipPath
       id="clipPath16-9-7-6"
       clipPathUnits="userSpaceOnUse"><path
         inkscape:connector-curvature="0"
         id="path18-3-9-1"
         d="M 0,36 H 36 V 0 H 0 Z" /></clipPath><clipPath
       id="clipPath28-6-2-0"
       clipPathUnits="userSpaceOnUse"><path
         inkscape:connector-curvature="0"
         id="path30-0-0-6"
         d="M 2.442,20.978 C 2.264,20.911 2.11,20.797 1.995,20.646 v 0 C 0.755,19.012 -0.619,12.529 3,9 V 9 C 6.557,5.532 9.822,4.696 11.777,4.505 v 0 C 11.81,4.502 11.885,4.498 11.918,4.498 v 0 c 2.458,0 18.332,10.761 19.524,13.235 v 0 c 1.371,2.842 1.281,8.399 -1.98,10.298 v 0 c -0.395,0.23 -0.914,0.337 -1.633,0.337 v 0 c -5.581,0 -24.582,-7.088 -25.387,-7.39" /></clipPath><clipPath
       id="clipPath16-9-78-4"
       clipPathUnits="userSpaceOnUse"><path
         inkscape:connector-curvature="0"
         id="path18-3-4-9"
         d="M 0,36 H 36 V 0 H 0 Z" /></clipPath><clipPath
       id="clipPath28-6-5-2"
       clipPathUnits="userSpaceOnUse"><path
         inkscape:connector-curvature="0"
         id="path30-0-03-0"
         d="M 2.442,20.978 C 2.264,20.911 2.11,20.797 1.995,20.646 v 0 C 0.755,19.012 -0.619,12.529 3,9 V 9 C 6.557,5.532 9.822,4.696 11.777,4.505 v 0 C 11.81,4.502 11.885,4.498 11.918,4.498 v 0 c 2.458,0 18.332,10.761 19.524,13.235 v 0 c 1.371,2.842 1.281,8.399 -1.98,10.298 v 0 c -0.395,0.23 -0.914,0.337 -1.633,0.337 v 0 c -5.581,0 -24.582,-7.088 -25.387,-7.39" /></clipPath><clipPath
       id="clipPath16-9-1"
       clipPathUnits="userSpaceOnUse"><path
         inkscape:connector-curvature="0"
         id="path18-3-0"
         d="M 0,36 H 36 V 0 H 0 Z" /></clipPath><clipPath
       id="clipPath28-6-3"
       clipPathUnits="userSpaceOnUse"><path
         inkscape:connector-curvature="0"
         id="path30-0-04"
         d="M 2.442,20.978 C 2.264,20.911 2.11,20.797 1.995,20.646 v 0 C 0.755,19.012 -0.619,12.529 3,9 V 9 C 6.557,5.532 9.822,4.696 11.777,4.505 v 0 C 11.81,4.502 11.885,4.498 11.918,4.498 v 0 c 2.458,0 18.332,10.761 19.524,13.235 v 0 c 1.371,2.842 1.281,8.399 -1.98,10.298 v 0 c -0.395,0.23 -0.914,0.337 -1.633,0.337 v 0 c -5.581,0 -24.582,-7.088 -25.387,-7.39" /></clipPath><clipPath
       id="clipPath16-4"
       clipPathUnits="userSpaceOnUse"><path
         inkscape:connector-curvature="0"
         id="path18-4"
         d="M 0,36 H 36 V 0 H 0 Z" /></clipPath><clipPath
       id="clipPath28-4"
       clipPathUnits="userSpaceOnUse"><path
         inkscape:connector-curvature="0"
         id="path30-7"
         d="M 2.442,20.978 C 2.264,20.911 2.11,20.797 1.995,20.646 v 0 C 0.755,19.012 -0.619,12.529 3,9 V 9 C 6.557,5.532 9.822,4.696 11.777,4.505 v 0 C 11.81,4.502 11.885,4.498 11.918,4.498 v 0 c 2.458,0 18.332,10.761 19.524,13.235 v 0 c 1.371,2.842 1.281,8.399 -1.98,10.298 v 0 c -0.395,0.23 -0.914,0.337 -1.633,0.337 v 0 c -5.581,0 -24.582,-7.088 -25.387,-7.39" /></clipPath></defs><g
     inkscape:groupmode="layer"
     id="layer3"
     inkscape:label="plate"
     style="display:inline"
     transform="translate(0,467)"
     sodipodi:insensitive="true"><g
       id="g1391"
       transform="matrix(11.559974,0,0,11.559989,-4.0994019,-482.14254)"><ellipse
         ry="12.906545"
         rx="21.746639"
         cy="27.79705"
         cx="22.5"
         id="path13935"
         style="opacity:1;fill:#d7ab5a;fill-opacity:1;stroke:#dacdae;stroke-width:0.79748029;stroke-linecap:round;stroke-linejoin:round;stroke-miterlimit:4;stroke-dasharray:none;stroke-dashoffset:0;stroke-opacity:1" /><ellipse
         ry="8.1626348"
         rx="14.824007"
         cy="28.961699"
         cx="22.5"
         id="path13935-2"
         style="opacity:1;fill:#e9c7a5;fill-opacity:1;stroke:none;stroke-width:0.02817883;stroke-linecap:round;stroke-linejoin:round;stroke-miterlimit:4;stroke-dasharray:0.16907291, 0.05635764;stroke-dashoffset:0;stroke-opacity:1" /></g></g><g
     inkscape:groupmode="layer"
     id="layer2"
     inkscape:label="sushi2"
     style="display:inline"
     transform="translate(0,467)"><path
       style="opacity:1;vector-effect:none;fill:#f2f2f2;fill-opacity:1;stroke:none;stroke-width:11.15036201;stroke-linecap:butt;stroke-linejoin:miter;stroke-miterlimit:4;stroke-dasharray:none;stroke-dashoffset:0;stroke-opacity:1"
       d="m 265.82865,-301.7294 c -35.79173,6.51053 -114.36413,33.53193 -141.15009,49.91688 -26.785972,16.38493 -24.4544,46.83913 -24.34947,63.94811 0.1052,17.10897 16.47748,35.35186 30.22553,48.77993 13.74805,13.42807 22.608,20.56858 60.85503,15.99367 38.24702,-4.57491 85.59474,-45.09419 115.01722,-67.35232 29.42246,-22.25816 40.28528,-38.58268 40.28355,-57.26233 0.002,-18.67966 -5.69415,-30.46704 -17.61873,-42.70907 -11.92456,-12.24201 -27.4713,-17.82539 -63.26304,-11.31487 z"
       id="path886-9"
       inkscape:connector-curvature="0"
       sodipodi:nodetypes="zzzszzcsz" /><path
       style="opacity:1;vector-effect:none;fill:#e6e6e6;fill-opacity:1;stroke:none;stroke-width:11.57818604;stroke-linecap:butt;stroke-linejoin:miter;stroke-miterlimit:4;stroke-dasharray:none;stroke-dashoffset:0;stroke-opacity:1"
       d="m 289.14201,-304.42361 c -6.67704,0.2008 -14.37522,1.05913 -23.32315,2.6868 -22.1143,4.0226 -60.52709,15.88661 -92.99909,28.22264 -12.58148,23.91308 -6.38275,50.6343 -6.39959,77.78156 0.01,25.67376 -6.88999,50.98893 4.41272,73.92072 5.81608,0.037 12.41182,-0.31131 20.56863,-1.28696 38.24701,-4.57491 85.6128,-45.09236 115.03528,-67.35048 29.42246,-22.25816 40.28101,-38.57843 40.27929,-57.25808 0.002,-18.67965 -5.70891,-30.47574 -17.63348,-42.71777 -8.94342,-9.18149 -19.90949,-14.60088 -39.94061,-13.99843 z"
       id="path927-7"
       inkscape:connector-curvature="0"
       sodipodi:nodetypes="ccccccccsc" /><path
       sodipodi:nodetypes="csccscccc"
       inkscape:connector-curvature="0"
       style="opacity:1;fill:#ffccb4;fill-opacity:1;stroke:none;stroke-width:0.26850608;stroke-linecap:round;stroke-linejoin:round;stroke-miterlimit:4;stroke-dasharray:1.61103639, 0.53701217000000001;stroke-dashoffset:0;stroke-opacity:1"
       d="m 293.61,-326.71908 c -30.94345,-3.11415 -152.5102,27.00408 -187.10041,69.24309 -20.655193,25.22259 -23.734222,50.41645 -28.744946,82.2362 38.497336,2.91852 66.922666,5.60147 87.596226,7.93832 8.23887,-8.57158 16.19669,-16.38646 25.3795,-22.72171 46.74816,-32.25168 144.61853,-76.05334 158.82427,-80.99847 l 6.65771,-22.48712 c -16.22457,-13.46331 -39.96383,-28.57774 -59.90637,-32.80462 -0.80362,-0.1703 -1.7078,-0.30523 -2.70598,-0.40569 z"
       id="path12905-2-5" /><path
       style="opacity:1;vector-effect:none;fill:#c92136;fill-opacity:1;stroke:none;stroke-width:1.12090802;stroke-linecap:butt;stroke-linejoin:miter;stroke-miterlimit:4;stroke-dasharray:none;stroke-dashoffset:0;stroke-opacity:1"
       d="m 355.09364,-294.42637 c -22.33928,3.41185 -41.52245,-1.7184 -85.86677,11.38515 -49.29696,14.56703 -144.1253,61.29547 -155.09179,110.75988 20.64151,1.78222 37.7803,3.46005 51.22579,4.97987 8.23887,-8.57158 16.19669,-16.38646 25.3795,-22.72171 46.74816,-32.25168 144.61853,-76.05334 158.82427,-80.99847 l 6.65771,-22.48712 z"
       id="path933-3"
       inkscape:connector-curvature="0"
       sodipodi:nodetypes="csccsccc" /><path
       sodipodi:nodetypes="csccscc"
       inkscape:connector-curvature="0"
       style="opacity:1;vector-effect:none;fill:#b3b3b3;fill-opacity:1;stroke:none;stroke-width:1.12090802;stroke-linecap:butt;stroke-linejoin:miter;stroke-miterlimit:4;stroke-dasharray:none;stroke-dashoffset:0;stroke-opacity:1"
       d="m 356.22235,-293.50877 c -21.88069,1.57093 -44.16923,11.41217 -71.07516,22.23312 -79.37898,31.92441 -127.52372,73.95036 -149.96909,100.89105 11.37597,1.07786 21.62678,2.116 30.18277,3.08313 8.23887,-8.57158 16.19669,-16.38646 25.3795,-22.72171 46.74816,-32.25168 144.61853,-76.05334 158.82427,-80.99847 z"
       id="path915-8" /></g><g
     inkscape:groupmode="layer"
     id="layer1"
     inkscape:label="sushi1"
     style="display:inline"
     transform="translate(0,467)"><path
       style="opacity:1;vector-effect:none;fill:#f2f2f2;fill-opacity:1;stroke:none;stroke-width:11.15036201;stroke-linecap:butt;stroke-linejoin:miter;stroke-miterlimit:4;stroke-dasharray:none;stroke-dashoffset:0;stroke-opacity:1"
       d="m 333.80862,-237.6542 c -35.79173,6.51053 -114.36413,33.53193 -141.15009,49.91688 -26.78597,16.38493 -24.4544,46.83913 -24.34947,63.94811 0.1052,17.10897 16.47748,35.351856 30.22553,48.779927 13.74805,13.428072 22.608,20.568585 60.85503,15.993673 38.24702,-4.574912 85.59474,-45.09419 115.01722,-67.35232 29.42246,-22.25816 40.28528,-38.58268 40.28355,-57.26233 0.002,-18.67966 -5.69415,-30.46704 -17.61873,-42.70907 -11.92456,-12.24201 -27.4713,-17.82539 -63.26304,-11.31487 z"
       id="path886"
       inkscape:connector-curvature="0"
       sodipodi:nodetypes="zzzszzcsz" /><path
       style="opacity:1;vector-effect:none;fill:#e6e6e6;fill-opacity:1;stroke:none;stroke-width:11.57818604;stroke-linecap:butt;stroke-linejoin:miter;stroke-miterlimit:4;stroke-dasharray:none;stroke-dashoffset:0;stroke-opacity:1"
       d="m 357.12198,-240.34841 c -6.67704,0.2008 -14.37522,1.05913 -23.32315,2.6868 -22.1143,4.0226 -60.52709,15.88661 -92.99909,28.22264 -12.58148,23.91308 -6.38275,50.6343 -6.39959,77.78156 0.01,25.67376 -6.88999,50.988923 4.41272,73.920716 5.81608,0.03699 12.41182,-0.311311 20.56863,-1.286962 38.24701,-4.574912 85.6128,-45.092354 115.03528,-67.350474 29.42246,-22.25816 40.28101,-38.57843 40.27929,-57.25808 0.002,-18.67965 -5.70891,-30.47574 -17.63348,-42.71777 -8.94342,-9.18149 -19.90949,-14.60088 -39.94061,-13.99843 z"
       id="path927"
       inkscape:connector-curvature="0"
       sodipodi:nodetypes="ccccccccsc" /><path
       sodipodi:nodetypes="csccscccc"
       inkscape:connector-curvature="0"
       style="opacity:1;fill:#ffccb4;fill-opacity:1;stroke:none;stroke-width:0.26850608;stroke-linecap:round;stroke-linejoin:round;stroke-miterlimit:4;stroke-dasharray:1.61103639, 0.53701217000000001;stroke-dashoffset:0;stroke-opacity:1"
       d="m 354.37565,-255.76526 c -30.94345,-3.11416 -152.5102,27.00407 -187.10041,69.24309 -20.65519,25.22258 -23.73422,50.41645 -28.74494,82.23618 38.49733,2.91853 66.92266,5.601483 87.59621,7.938328 8.23888,-8.571578 16.19669,-16.386458 25.37951,-22.721708 46.74815,-32.25168 144.61853,-76.05334 158.82427,-80.99846 l 6.65771,-22.48713 c -16.22457,-13.46331 -39.96383,-28.57774 -59.90638,-32.80462 -0.80362,-0.17029 -1.7078,-0.30522 -2.70597,-0.40568 z"
       id="path12905-2" /><path
       style="opacity:1;vector-effect:none;fill:#c92136;fill-opacity:1;stroke:none;stroke-width:1.12090802;stroke-linecap:butt;stroke-linejoin:miter;stroke-miterlimit:4;stroke-dasharray:none;stroke-dashoffset:0;stroke-opacity:1"
       d="m 415.85929,-223.47256 c -22.33928,3.41186 -41.52245,-1.7184 -85.86677,11.38515 -49.29697,14.56704 -144.1253,61.29547 -155.09179,110.75988 20.64151,1.782213 37.7803,3.460048 51.22578,4.979868 8.23888,-8.571578 16.19669,-16.386458 25.37951,-22.721708 46.74815,-32.25168 144.61853,-76.05334 158.82427,-80.99846 l 6.65771,-22.48713 z"
       id="path933"
       inkscape:connector-curvature="0"
       sodipodi:nodetypes="csccsccc" /><path
       sodipodi:nodetypes="csccscc"
       inkscape:connector-curvature="0"
       style="opacity:1;vector-effect:none;fill:#b3b3b3;fill-opacity:1;stroke:none;stroke-width:1.12090802;stroke-linecap:butt;stroke-linejoin:miter;stroke-miterlimit:4;stroke-dasharray:none;stroke-dashoffset:0;stroke-opacity:1"
       d="m 416.988,-222.55496 c -21.8807,1.57093 -44.16923,11.41217 -71.07516,22.23312 -79.37899,31.92441 -127.52372,73.95037 -149.96909,100.891054 11.37596,1.07786 21.62678,2.115993 30.18276,3.083124 8.23888,-8.571578 16.19669,-16.386458 25.37951,-22.721708 46.74815,-32.25168 144.61853,-76.05334 158.82427,-80.99846 z"
       id="path915" /></g></svg>