<?xml version="1.0" encoding="UTF-8" standalone="no"?>
<svg
   xmlns:dc="http://purl.org/dc/elements/1.1/"
   xmlns:cc="http://creativecommons.org/ns#"
   xmlns:rdf="http://www.w3.org/1999/02/22-rdf-syntax-ns#"
   xmlns:svg="http://www.w3.org/2000/svg"
   xmlns="http://www.w3.org/2000/svg"
   xmlns:sodipodi="http://sodipodi.sourceforge.net/DTD/sodipodi-0.dtd"
   xmlns:inkscape="http://www.inkscape.org/namespaces/inkscape"
   viewBox="0 0 512 512"
   xml:space="preserve"
   version="1.1"
   id="svg2"
   sodipodi:docname="uni.svg"
   inkscape:version="0.92.2 5c3e80d, 2017-08-06"
   width="512"
   height="512"><sodipodi:namedview
     pagecolor="#ffffff"
     bordercolor="#666666"
     borderopacity="1"
     objecttolerance="10"
     gridtolerance="10"
     guidetolerance="10"
     inkscape:pageopacity="0"
     inkscape:pageshadow="2"
     inkscape:window-width="1361"
     inkscape:window-height="1050"
     id="namedview12770"
     showgrid="false"
     inkscape:zoom="1.1861111"
     inkscape:cx="209.74286"
     inkscape:cy="124.64652"
     inkscape:window-x="0"
     inkscape:window-y="28"
     inkscape:window-maximized="0"
     inkscape:current-layer="layer3" /><metadata
     id="metadata8"><rdf:RDF><cc:Work
         rdf:about=""><dc:format>image/svg+xml</dc:format><dc:type
           rdf:resource="http://purl.org/dc/dcmitype/StillImage" /><dc:title /></cc:Work></rdf:RDF></metadata><defs
     id="defs6"><inkscape:perspective
       sodipodi:type="inkscape:persp3d"
       inkscape:vp_x="0 : 0.5 : 1"
       inkscape:vp_y="0 : 22.222222 : 0"
       inkscape:vp_z="1 : 0.5 : 1"
       inkscape:persp3d-origin="0.5 : 0.33333333 : 1"
       id="perspective17668" /><clipPath
       id="clipPath16"
       clipPathUnits="userSpaceOnUse"><path
         id="path18"
         d="M 0,36 H 36 V 0 H 0 Z"
         inkscape:connector-curvature="0" /></clipPath><clipPath
       id="clipPath28"
       clipPathUnits="userSpaceOnUse"><path
         id="path30"
         d="M 2.442,20.978 C 2.264,20.911 2.11,20.797 1.995,20.646 v 0 C 0.755,19.012 -0.619,12.529 3,9 V 9 C 6.557,5.532 9.822,4.696 11.777,4.505 v 0 C 11.81,4.502 11.885,4.498 11.918,4.498 v 0 c 2.458,0 18.332,10.761 19.524,13.235 v 0 c 1.371,2.842 1.281,8.399 -1.98,10.298 v 0 c -0.395,0.23 -0.914,0.337 -1.633,0.337 v 0 c -5.581,0 -24.582,-7.088 -25.387,-7.39"
         inkscape:connector-curvature="0" /></clipPath><clipPath
       id="clipPath40"
       clipPathUnits="userSpaceOnUse"><path
         id="path42"
         d="M 0,36 H 36 V 0 H 0 Z"
         inkscape:connector-curvature="0" /></clipPath><clipPath
       id="clipPath16-3"
       clipPathUnits="userSpaceOnUse"><path
         inkscape:connector-curvature="0"
         id="path18-6"
         d="M 0,36 H 36 V 0 H 0 Z" /></clipPath><clipPath
       id="clipPath28-7"
       clipPathUnits="userSpaceOnUse"><path
         inkscape:connector-curvature="0"
         id="path30-5"
         d="M 2.442,20.978 C 2.264,20.911 2.11,20.797 1.995,20.646 v 0 C 0.755,19.012 -0.619,12.529 3,9 V 9 C 6.557,5.532 9.822,4.696 11.777,4.505 v 0 C 11.81,4.502 11.885,4.498 11.918,4.498 v 0 c 2.458,0 18.332,10.761 19.524,13.235 v 0 c 1.371,2.842 1.281,8.399 -1.98,10.298 v 0 c -0.395,0.23 -0.914,0.337 -1.633,0.337 v 0 c -5.581,0 -24.582,-7.088 -25.387,-7.39" /></clipPath><clipPath
       id="clipPath16-9"
       clipPathUnits="userSpaceOnUse"><path
         inkscape:connector-curvature="0"
         id="path18-3"
         d="M 0,36 H 36 V 0 H 0 Z" /></clipPath><clipPath
       id="clipPath28-6"
       clipPathUnits="userSpaceOnUse"><path
         inkscape:connector-curvature="0"
         id="path30-0"
         d="M 2.442,20.978 C 2.264,20.911 2.11,20.797 1.995,20.646 v 0 C 0.755,19.012 -0.619,12.529 3,9 V 9 C 6.557,5.532 9.822,4.696 11.777,4.505 v 0 C 11.81,4.502 11.885,4.498 11.918,4.498 v 0 c 2.458,0 18.332,10.761 19.524,13.235 v 0 c 1.371,2.842 1.281,8.399 -1.98,10.298 v 0 c -0.395,0.23 -0.914,0.337 -1.633,0.337 v 0 c -5.581,0 -24.582,-7.088 -25.387,-7.39" /></clipPath><clipPath
       id="clipPath16-9-3"
       clipPathUnits="userSpaceOnUse"><path
         inkscape:connector-curvature="0"
         id="path18-3-6"
         d="M 0,36 H 36 V 0 H 0 Z" /></clipPath><clipPath
       id="clipPath28-6-7"
       clipPathUnits="userSpaceOnUse"><path
         inkscape:connector-curvature="0"
         id="path30-0-5"
         d="M 2.442,20.978 C 2.264,20.911 2.11,20.797 1.995,20.646 v 0 C 0.755,19.012 -0.619,12.529 3,9 V 9 C 6.557,5.532 9.822,4.696 11.777,4.505 v 0 C 11.81,4.502 11.885,4.498 11.918,4.498 v 0 c 2.458,0 18.332,10.761 19.524,13.235 v 0 c 1.371,2.842 1.281,8.399 -1.98,10.298 v 0 c -0.395,0.23 -0.914,0.337 -1.633,0.337 v 0 c -5.581,0 -24.582,-7.088 -25.387,-7.39" /></clipPath><clipPath
       id="clipPath16-9-7"
       clipPathUnits="userSpaceOnUse"><path
         inkscape:connector-curvature="0"
         id="path18-3-9"
         d="M 0,36 H 36 V 0 H 0 Z" /></clipPath><clipPath
       id="clipPath28-6-2"
       clipPathUnits="userSpaceOnUse"><path
         inkscape:connector-curvature="0"
         id="path30-0-0"
         d="M 2.442,20.978 C 2.264,20.911 2.11,20.797 1.995,20.646 v 0 C 0.755,19.012 -0.619,12.529 3,9 V 9 C 6.557,5.532 9.822,4.696 11.777,4.505 v 0 C 11.81,4.502 11.885,4.498 11.918,4.498 v 0 c 2.458,0 18.332,10.761 19.524,13.235 v 0 c 1.371,2.842 1.281,8.399 -1.98,10.298 v 0 c -0.395,0.23 -0.914,0.337 -1.633,0.337 v 0 c -5.581,0 -24.582,-7.088 -25.387,-7.39" /></clipPath><clipPath
       id="clipPath16-9-78"
       clipPathUnits="userSpaceOnUse"><path
         inkscape:connector-curvature="0"
         id="path18-3-4"
         d="M 0,36 H 36 V 0 H 0 Z" /></clipPath><clipPath
       id="clipPath28-6-5"
       clipPathUnits="userSpaceOnUse"><path
         inkscape:connector-curvature="0"
         id="path30-0-03"
         d="M 2.442,20.978 C 2.264,20.911 2.11,20.797 1.995,20.646 v 0 C 0.755,19.012 -0.619,12.529 3,9 V 9 C 6.557,5.532 9.822,4.696 11.777,4.505 v 0 C 11.81,4.502 11.885,4.498 11.918,4.498 v 0 c 2.458,0 18.332,10.761 19.524,13.235 v 0 c 1.371,2.842 1.281,8.399 -1.98,10.298 v 0 c -0.395,0.23 -0.914,0.337 -1.633,0.337 v 0 c -5.581,0 -24.582,-7.088 -25.387,-7.39" /></clipPath><clipPath
       id="clipPath16-9-7-6"
       clipPathUnits="userSpaceOnUse"><path
         inkscape:connector-curvature="0"
         id="path18-3-9-1"
         d="M 0,36 H 36 V 0 H 0 Z" /></clipPath><clipPath
       id="clipPath28-6-2-0"
       clipPathUnits="userSpaceOnUse"><path
         inkscape:connector-curvature="0"
         id="path30-0-0-6"
         d="M 2.442,20.978 C 2.264,20.911 2.11,20.797 1.995,20.646 v 0 C 0.755,19.012 -0.619,12.529 3,9 V 9 C 6.557,5.532 9.822,4.696 11.777,4.505 v 0 C 11.81,4.502 11.885,4.498 11.918,4.498 v 0 c 2.458,0 18.332,10.761 19.524,13.235 v 0 c 1.371,2.842 1.281,8.399 -1.98,10.298 v 0 c -0.395,0.23 -0.914,0.337 -1.633,0.337 v 0 c -5.581,0 -24.582,-7.088 -25.387,-7.39" /></clipPath><clipPath
       id="clipPath16-9-78-4"
       clipPathUnits="userSpaceOnUse"><path
         inkscape:connector-curvature="0"
         id="path18-3-4-9"
         d="M 0,36 H 36 V 0 H 0 Z" /></clipPath><clipPath
       id="clipPath28-6-5-2"
       clipPathUnits="userSpaceOnUse"><path
         inkscape:connector-curvature="0"
         id="path30-0-03-0"
         d="M 2.442,20.978 C 2.264,20.911 2.11,20.797 1.995,20.646 v 0 C 0.755,19.012 -0.619,12.529 3,9 V 9 C 6.557,5.532 9.822,4.696 11.777,4.505 v 0 C 11.81,4.502 11.885,4.498 11.918,4.498 v 0 c 2.458,0 18.332,10.761 19.524,13.235 v 0 c 1.371,2.842 1.281,8.399 -1.98,10.298 v 0 c -0.395,0.23 -0.914,0.337 -1.633,0.337 v 0 c -5.581,0 -24.582,-7.088 -25.387,-7.39" /></clipPath><clipPath
       id="clipPath16-9-1"
       clipPathUnits="userSpaceOnUse"><path
         inkscape:connector-curvature="0"
         id="path18-3-0"
         d="M 0,36 H 36 V 0 H 0 Z" /></clipPath><clipPath
       id="clipPath28-6-3"
       clipPathUnits="userSpaceOnUse"><path
         inkscape:connector-curvature="0"
         id="path30-0-04"
         d="M 2.442,20.978 C 2.264,20.911 2.11,20.797 1.995,20.646 v 0 C 0.755,19.012 -0.619,12.529 3,9 V 9 C 6.557,5.532 9.822,4.696 11.777,4.505 v 0 C 11.81,4.502 11.885,4.498 11.918,4.498 v 0 c 2.458,0 18.332,10.761 19.524,13.235 v 0 c 1.371,2.842 1.281,8.399 -1.98,10.298 v 0 c -0.395,0.23 -0.914,0.337 -1.633,0.337 v 0 c -5.581,0 -24.582,-7.088 -25.387,-7.39" /></clipPath><clipPath
       id="clipPath16-4"
       clipPathUnits="userSpaceOnUse"><path
         inkscape:connector-curvature="0"
         id="path18-4"
         d="M 0,36 H 36 V 0 H 0 Z" /></clipPath><clipPath
       id="clipPath28-4"
       clipPathUnits="userSpaceOnUse"><path
         inkscape:connector-curvature="0"
         id="path30-7"
         d="M 2.442,20.978 C 2.264,20.911 2.11,20.797 1.995,20.646 v 0 C 0.755,19.012 -0.619,12.529 3,9 V 9 C 6.557,5.532 9.822,4.696 11.777,4.505 v 0 C 11.81,4.502 11.885,4.498 11.918,4.498 v 0 c 2.458,0 18.332,10.761 19.524,13.235 v 0 c 1.371,2.842 1.281,8.399 -1.98,10.298 v 0 c -0.395,0.23 -0.914,0.337 -1.633,0.337 v 0 c -5.581,0 -24.582,-7.088 -25.387,-7.39" /></clipPath></defs><g
     inkscape:groupmode="layer"
     id="layer3"
     inkscape:label="plate"
     style="display:inline"
     transform="translate(0,467)"><g
       transform="translate(0,1.4746093e-6)"
       style="display:inline"
       id="g937"><ellipse
         ry="153.80901"
         rx="256"
         cy="-160.80901"
         cx="256"
         id="path879-3"
         style="opacity:1;vector-effect:none;fill:#6e8fd9;fill-opacity:1;stroke:none;stroke-width:13.26766968;stroke-linecap:butt;stroke-linejoin:miter;stroke-miterlimit:4;stroke-dasharray:none;stroke-dashoffset:0;stroke-opacity:1" /><path
         inkscape:connector-curvature="0"
         transform="translate(0,-467)"
         id="path879-6-6"
         d="M 256,162.49219 A 242.5,145.69797 0 0 0 13.5,308.19141 242.5,145.69797 0 0 0 256,453.88867 242.5,145.69797 0 0 0 498.5,308.19141 242.5,145.69797 0 0 0 256,162.49219 Z m 0,61.33789 A 171.36514,94.35997 0 0 1 427.36523,318.19141 171.36514,94.35997 0 0 1 256,412.55078 171.36514,94.35997 0 0 1 84.634766,318.19141 171.36514,94.35997 0 0 1 256,223.83008 Z"
         style="display:inline;opacity:1;vector-effect:none;fill:#b2d2ed;fill-opacity:1;stroke:none;stroke-width:12.56800747;stroke-linecap:butt;stroke-linejoin:miter;stroke-miterlimit:4;stroke-dasharray:none;stroke-dashoffset:0;stroke-opacity:1" /></g></g><g
     inkscape:groupmode="layer"
     id="layer2"
     inkscape:label="sushi2"
     style="display:inline"
     transform="translate(0,467)"><path
       style="display:inline;opacity:1;vector-effect:none;fill:#6c5d53;fill-opacity:1;stroke:none;stroke-width:1.08656275;stroke-linecap:butt;stroke-linejoin:miter;stroke-miterlimit:4;stroke-dasharray:none;stroke-dashoffset:0;stroke-opacity:1"
       d="m 110.37672,-170.39667 c 0.0809,-1.5848 0.26787,-3.16082 0.58851,-4.71494 0.55632,-2.69618 1.47001,-5.33464 2.73056,-7.87681 1.26055,-2.54218 2.86773,-4.98801 4.81626,-7.2974 1.94853,-2.30938 4.23884,-4.48322 6.8591,-6.48105 2.62026,-1.99783 5.57213,-3.82026 8.84786,-5.42776 l 110.93404,-54.43884 c 3.27573,-1.60748 6.71667,-2.92053 10.26612,-3.95035 3.54945,-1.0298 7.20775,-1.77635 10.92227,-2.24598 3.71451,-0.46961 7.48504,-0.66244 11.25597,-0.58936 3.77092,0.0731 7.54179,0.41316 11.26048,1.01148 3.71868,0.59832 7.38479,1.4545 10.94256,2.56056 3.55779,1.10607 7.0072,2.46154 10.29543,4.05788 3.28824,1.59633 6.41583,3.4343 9.32585,5.50342 2.91004,2.06912 5.60395,4.36879 8.02711,6.89321 2.42317,2.52441 4.4566,5.14947 6.11052,7.83501 1.65392,2.68552 2.92774,5.4315 3.82865,8.19936 0.89832,2.75992 1.42386,5.54135 1.58964,8.30491 v -65.37199 h 0.0541 l -0.0541,-25.62554 c 0,0 -0.69132,-5.545 -1.58964,-8.30491 -0.90091,-2.76785 -2.17473,-5.51385 -3.82865,-8.19937 -1.65392,-2.68553 -3.68735,-5.31059 -6.11052,-7.83501 -2.42316,-2.52443 -5.11707,-4.82409 -8.02711,-6.89321 -2.91002,-2.06912 -6.03761,-3.90709 -9.32585,-5.50342 -3.28823,-1.59634 -6.73764,-2.95181 -10.29543,-4.05787 -3.55777,-1.10608 -7.22388,-1.96224 -10.94256,-2.56056 -3.71869,-0.59833 -7.48956,-0.93839 -11.26048,-1.01148 -3.77093,-0.0731 -7.54146,0.11974 -11.25597,0.58936 -3.71452,0.46961 -7.37282,1.21616 -10.92227,2.24597 -3.54945,1.02981 -6.99039,2.34288 -10.26612,3.95036 l -110.93404,54.43883 c -3.27573,1.60749 -6.2276,3.42993 -8.84786,5.42776 -2.62026,1.99783 -4.91057,4.17166 -6.8591,6.48104 -1.94853,2.3094 -3.55571,4.75524 -4.81626,7.29741 -1.26055,2.54217 -2.17424,5.18064 -2.73056,7.87681 -0.32064,1.55412 -0.50766,3.13014 -0.58851,4.71494 v 3.47449 z"
       id="rect970-9-7"
       inkscape:connector-curvature="0"
       sodipodi:nodetypes="ccccccccscsscsccccccccccscsssscccccccccc" /><path
       inkscape:connector-curvature="0"
       style="opacity:1;vector-effect:none;fill:#de8c16;fill-opacity:1;stroke:none;stroke-width:1.00157475;stroke-linecap:butt;stroke-linejoin:miter;stroke-miterlimit:4;stroke-dasharray:none;stroke-dashoffset:0;stroke-opacity:1"
       d="m 295.54297,-359.66406 a 43.419205,42.154568 0 0 0 -22.47656,6.13476 43.419205,42.154568 0 0 0 -12.9336,-1.91992 43.419205,42.154568 0 0 0 -31.77929,13.50781 43.419205,42.154568 0 0 0 -32.18946,14.52539 43.419205,42.154568 0 0 0 -4.32226,-0.21093 43.419205,42.154568 0 0 0 -37.28516,20.64648 43.419205,42.154568 0 0 0 -20.11719,7.88672 43.419205,42.154568 0 0 0 -23.11328,37.22656 43.419205,42.154568 0 0 0 15.69922,32.42578 43.419205,42.154568 0 0 0 42.89649,35.86524 43.419205,42.154568 0 0 0 34.13476,-16.17969 43.419205,42.154568 0 0 0 17.69336,-13.71094 43.419205,42.154568 0 0 0 5.50195,0.38282 43.419205,42.154568 0 0 0 34.78907,-17.01368 43.419205,42.154568 0 0 0 3.15039,0.15235 43.419205,42.154568 0 0 0 37.3164,-20.69922 43.419205,42.154568 0 0 0 36.05469,-31.79297 v -19.70117 a 43.419205,42.154568 0 0 0 0.39844,-5.3711 43.419205,42.154568 0 0 0 -43.41797,-42.15429 z"
       id="path1362-7" /><path
       inkscape:connector-curvature="0"
       style="display:inline;opacity:1;vector-effect:none;fill:#c17714;fill-opacity:1;stroke:none;stroke-width:12.72399998;stroke-linecap:butt;stroke-linejoin:miter;stroke-miterlimit:4;stroke-dasharray:none;stroke-dashoffset:0;stroke-opacity:1"
       d="m 329.04688,-323.42773 c 0,0 -22.65261,11.32829 -35.17188,5.96289 -12.51927,-5.3654 -14.30898,1.78708 -44.13086,5.28125 -29.82188,3.49417 -18.46625,30.48826 -50.0625,38.23828 -31.59624,7.75002 -8.34575,5.96121 -41.73047,18.48047 -26.18323,9.81872 -20.598,3.92298 -43.37109,9.52734 a 43.419205,42.154568 0 0 0 12.44531,16.49609 43.419205,42.154568 0 0 0 42.89649,35.86524 43.419205,42.154568 0 0 0 34.13476,-16.17969 43.419205,42.154568 0 0 0 17.69336,-13.71094 43.419205,42.154568 0 0 0 5.50195,0.38282 43.419205,42.154568 0 0 0 34.78907,-17.01368 43.419205,42.154568 0 0 0 3.15039,0.15235 43.419205,42.154568 0 0 0 37.3164,-20.69922 43.419205,42.154568 0 0 0 36.05469,-31.79297 v -19.70117 a 43.419205,42.154568 0 0 0 0.39844,-5.3711 43.419205,42.154568 0 0 0 -0.13282,-2.56445 c -5.83771,-2.84528 -9.78124,-3.35351 -9.78124,-3.35351 z"
       id="path916-5" /><path
       style="opacity:1;vector-effect:none;fill:#2b2b2b;fill-opacity:1;stroke:none;stroke-width:1.08656275;stroke-linecap:butt;stroke-linejoin:miter;stroke-miterlimit:4;stroke-dasharray:none;stroke-dashoffset:0;stroke-opacity:1"
       d="m 339.03179,-312.13449 c -0.0809,1.5848 -0.26787,3.16082 -0.58852,4.71494 -0.55632,2.69618 -1.47001,5.33464 -2.73056,7.87681 -1.26055,2.54217 -2.86773,4.98801 -4.81626,7.29741 -1.94853,2.30938 -4.23884,4.48321 -6.8591,6.48104 -2.62025,1.99783 -5.57213,3.82027 -8.84786,5.42776 l -110.93403,54.43883 c -3.27574,1.60748 -6.71668,2.92055 -10.26613,3.95036 -3.54944,1.02981 -7.20775,1.77636 -10.92226,2.24597 -3.71452,0.46962 -7.48505,0.66245 -11.25598,0.58936 -3.77091,-0.0731 -7.54179,-0.41315 -11.26047,-1.01147 -3.71868,-0.59832 -7.38479,-1.45449 -10.94257,-2.56057 -3.55779,-1.10606 -7.0072,-2.46153 -10.29543,-4.05787 -3.28823,-1.59633 -6.41582,-3.4343 -9.32586,-5.50342 -2.91002,-2.06912 -5.60394,-4.36879 -8.0271,-6.89321 -2.42316,-2.52442 -4.45661,-5.14947 -6.11052,-7.83501 -1.65392,-2.68551 -2.92774,-5.43151 -3.82865,-8.19937 -0.89832,-2.75991 -1.42386,-5.54134 -1.58964,-8.30491 v 65.37201 h -0.0541 l 0.0541,25.62554 c 0,0 0.69132,5.54499 1.58964,8.30491 0.90091,2.76784 2.17473,5.51384 3.82865,8.19936 1.65391,2.68554 3.68736,5.3106 6.11052,7.83501 2.42316,2.52443 5.11708,4.82409 8.0271,6.89321 2.91004,2.06912 6.03763,3.9071 9.32586,5.50342 3.28823,1.59634 6.73764,2.95181 10.29543,4.05788 3.55778,1.10606 7.22389,1.96223 10.94257,2.56055 3.71868,0.59832 7.48956,0.93839 11.26047,1.01149 3.77093,0.0731 7.54146,-0.11975 11.25598,-0.58936 3.71451,-0.46963 7.37282,-1.21618 10.92226,-2.24598 3.54945,-1.02982 6.99039,-2.34287 10.26613,-3.95035 l 110.93403,-54.43884 c 3.27573,-1.6075 6.22761,-3.42993 8.84786,-5.42776 2.62026,-1.99782 4.91057,-4.17167 6.8591,-6.48105 1.94853,-2.30939 3.55571,-4.75522 4.81626,-7.2974 1.26055,-2.54217 2.17424,-5.18064 2.73056,-7.87681 0.32065,-1.55412 0.50767,-3.13014 0.58852,-4.71494 v -3.47449 z"
       id="rect970-4"
       inkscape:connector-curvature="0"
       sodipodi:nodetypes="ccccccccscsscsccccccccccscsssscccccccccc" /></g><g
     inkscape:groupmode="layer"
     id="layer1"
     inkscape:label="sushi1"
     style="display:inline"
     transform="translate(0,467)"><path
       style="display:inline;opacity:1;vector-effect:none;fill:#6c5d53;fill-opacity:1;stroke:none;stroke-width:1.08656275;stroke-linecap:butt;stroke-linejoin:miter;stroke-miterlimit:4;stroke-dasharray:none;stroke-dashoffset:0;stroke-opacity:1"
       d="m 170.61823,-97.06676 c 0.0809,-1.5848 0.26787,-3.16082 0.58851,-4.71494 0.55632,-2.69618 1.47001,-5.33464 2.73056,-7.87681 1.26055,-2.54218 2.86773,-4.98801 4.81626,-7.2974 1.94853,-2.30938 4.23884,-4.48322 6.8591,-6.48105 2.62026,-1.99783 5.57213,-3.82026 8.84786,-5.42776 l 110.93404,-54.43884 c 3.27573,-1.60748 6.71667,-2.92053 10.26612,-3.95035 3.54945,-1.0298 7.20775,-1.77635 10.92227,-2.24598 3.71451,-0.46961 7.48504,-0.66244 11.25597,-0.58936 3.77092,0.0731 7.54179,0.41316 11.26048,1.01148 3.71868,0.59832 7.38479,1.4545 10.94256,2.56056 3.55779,1.10607 7.0072,2.46154 10.29543,4.05788 3.28824,1.59633 6.41583,3.4343 9.32585,5.50342 2.91004,2.06912 5.60395,4.36879 8.02711,6.89321 2.42317,2.52441 4.4566,5.14947 6.11052,7.83501 1.65392,2.68552 2.92774,5.4315 3.82865,8.19936 0.89832,2.75992 1.42386,5.54135 1.58964,8.30491 v -65.37199 h 0.0541 l -0.0541,-25.62554 c 0,0 -0.69132,-5.545 -1.58964,-8.30491 -0.90091,-2.76785 -2.17473,-5.51385 -3.82865,-8.19937 -1.65392,-2.68553 -3.68735,-5.31059 -6.11052,-7.83501 -2.42316,-2.52443 -5.11707,-4.82409 -8.02711,-6.89321 -2.91002,-2.06912 -6.03761,-3.90709 -9.32585,-5.50342 -3.28823,-1.59634 -6.73764,-2.95181 -10.29543,-4.05787 -3.55777,-1.10608 -7.22388,-1.96224 -10.94256,-2.56056 -3.71869,-0.59833 -7.48956,-0.93839 -11.26048,-1.01148 -3.77093,-0.0731 -7.54146,0.11974 -11.25597,0.58936 -3.71452,0.46961 -7.37282,1.21616 -10.92227,2.24597 -3.54945,1.02981 -6.99039,2.34288 -10.26612,3.95036 l -110.93404,54.43883 c -3.27573,1.60749 -6.2276,3.42993 -8.84786,5.42776 -2.62026,1.99783 -4.91057,4.17166 -6.8591,6.48104 -1.94853,2.3094 -3.55571,4.75524 -4.81626,7.29741 -1.26055,2.54217 -2.17424,5.18064 -2.73056,7.87681 -0.32064,1.55412 -0.50766,3.13014 -0.58851,4.71494 v 3.47449 z"
       id="rect970-9"
       inkscape:connector-curvature="0"
       sodipodi:nodetypes="ccccccccscsscsccccccccccscsssscccccccccc" /><path
       inkscape:connector-curvature="0"
       style="opacity:1;vector-effect:none;fill:#de8c16;fill-opacity:1;stroke:none;stroke-width:1.00157475;stroke-linecap:butt;stroke-linejoin:miter;stroke-miterlimit:4;stroke-dasharray:none;stroke-dashoffset:0;stroke-opacity:1"
       d="m 355.78516,-286.33398 a 43.419205,42.154568 0 0 0 -22.47657,6.13476 43.419205,42.154568 0 0 0 -12.93359,-1.91992 43.419205,42.154568 0 0 0 -31.7793,13.50781 43.419205,42.154568 0 0 0 -32.18945,14.52539 43.419205,42.154568 0 0 0 -4.32227,-0.21094 43.419205,42.154568 0 0 0 -37.28515,20.64649 43.419205,42.154568 0 0 0 -20.11719,7.88672 43.419205,42.154568 0 0 0 -23.11328,37.22656 43.419205,42.154568 0 0 0 15.69922,32.42578 43.419205,42.154568 0 0 0 42.89648,35.86524 43.419205,42.154568 0 0 0 34.13477,-16.17969 43.419205,42.154568 0 0 0 17.69336,-13.71094 43.419205,42.154568 0 0 0 5.50195,0.38281 43.419205,42.154568 0 0 0 34.78906,-17.01367 43.419205,42.154568 0 0 0 3.15039,0.15235 43.419205,42.154568 0 0 0 37.31641,-20.69922 43.419205,42.154568 0 0 0 36.05469,-31.79297 v -19.70117 a 43.419205,42.154568 0 0 0 0.39843,-5.3711 43.419205,42.154568 0 0 0 -43.41796,-42.15429 z"
       id="path1362" /><path
       inkscape:connector-curvature="0"
       style="display:inline;opacity:1;vector-effect:none;fill:#c17714;fill-opacity:1;stroke:none;stroke-width:12.72399998;stroke-linecap:butt;stroke-linejoin:miter;stroke-miterlimit:4;stroke-dasharray:none;stroke-dashoffset:0;stroke-opacity:1"
       d="m 389.28906,-250.09766 c 0,0 -22.6526,11.32829 -35.17187,5.96289 -12.51927,-5.3654 -14.30898,1.78708 -44.13086,5.28125 -29.82188,3.49417 -18.46625,30.48827 -50.0625,38.23829 -31.59624,7.75002 -8.34575,5.9612 -41.73047,18.48046 -26.18323,9.81872 -20.598,3.92299 -43.37109,9.52735 a 43.419205,42.154568 0 0 0 12.44531,16.49609 43.419205,42.154568 0 0 0 42.89648,35.86524 43.419205,42.154568 0 0 0 34.13477,-16.17969 43.419205,42.154568 0 0 0 17.69336,-13.71094 43.419205,42.154568 0 0 0 5.50195,0.38281 43.419205,42.154568 0 0 0 34.78906,-17.01367 43.419205,42.154568 0 0 0 3.15039,0.15235 43.419205,42.154568 0 0 0 37.31641,-20.69922 43.419205,42.154568 0 0 0 36.05469,-31.79297 v -19.70117 a 43.419205,42.154568 0 0 0 0.39843,-5.3711 43.419205,42.154568 0 0 0 -0.13281,-2.56445 c -5.83771,-2.84528 -9.78125,-3.35352 -9.78125,-3.35352 z"
       id="path916" /><path
       style="opacity:1;vector-effect:none;fill:#2b2b2b;fill-opacity:1;stroke:none;stroke-width:1.08656275;stroke-linecap:butt;stroke-linejoin:miter;stroke-miterlimit:4;stroke-dasharray:none;stroke-dashoffset:0;stroke-opacity:1"
       d="m 399.2733,-238.80458 c -0.0809,1.5848 -0.26787,3.16082 -0.58852,4.71494 -0.55632,2.69618 -1.47001,5.33464 -2.73056,7.87681 -1.26055,2.54217 -2.86773,4.98801 -4.81626,7.29741 -1.94853,2.30938 -4.23884,4.48321 -6.8591,6.48104 -2.62025,1.99783 -5.57213,3.82027 -8.84786,5.42776 l -110.93403,54.43883 c -3.27574,1.60748 -6.71668,2.92055 -10.26613,3.95036 -3.54944,1.02981 -7.20775,1.77636 -10.92226,2.24597 -3.71452,0.46962 -7.48505,0.66245 -11.25598,0.58936 -3.77091,-0.0731 -7.54179,-0.41315 -11.26047,-1.01147 -3.71868,-0.59832 -7.38479,-1.45449 -10.94257,-2.56057 -3.55779,-1.10606 -7.0072,-2.46153 -10.29543,-4.05787 -3.28823,-1.59633 -6.41582,-3.4343 -9.32586,-5.50342 -2.91002,-2.06912 -5.60394,-4.36879 -8.0271,-6.89321 -2.42316,-2.52442 -4.45661,-5.14947 -6.11052,-7.83501 -1.65392,-2.68551 -2.92774,-5.43151 -3.82865,-8.19937 -0.89832,-2.75991 -1.42386,-5.54134 -1.58964,-8.30491 v 65.37201 h -0.0541 l 0.0541,25.62554 c 0,0 0.69132,5.544991 1.58964,8.304907 0.90091,2.767843 2.17473,5.513837 3.82865,8.199362 1.65391,2.685534 3.68736,5.310597 6.11052,7.835007 2.42316,2.524427 5.11708,4.824092 8.0271,6.893212 2.91004,2.069119 6.03763,3.907096 9.32586,5.503421 3.28823,1.596343 6.73764,2.951808 10.29543,4.057879 3.55778,1.106063 7.22389,1.962228 10.94257,2.560551 3.71868,0.598323 7.48956,0.938391 11.26047,1.011487 3.77093,0.07314 7.54146,-0.119745 11.25598,-0.589361 3.71451,-0.469624 7.37282,-1.216174 10.92226,-2.245979 3.54945,-1.029815 6.99039,-2.342868 10.26613,-3.950349 L 375.431,-116.00908 c 3.27573,-1.6075 6.22761,-3.42993 8.84786,-5.42776 2.62026,-1.99782 4.91057,-4.17167 6.8591,-6.48105 1.94853,-2.30939 3.55571,-4.75522 4.81626,-7.2974 1.26055,-2.54217 2.17424,-5.18064 2.73056,-7.87681 0.32065,-1.55412 0.50767,-3.13014 0.58852,-4.71494 v -3.47449 z"
       id="rect970"
       inkscape:connector-curvature="0"
       sodipodi:nodetypes="ccccccccscsscsccccccccccscsssscccccccccc" /></g></svg>